<?xml version="1.0" encoding="UTF-8" standalone="no"?>
<svg
   xmlns:dc="http://purl.org/dc/elements/1.1/"
   xmlns:cc="http://creativecommons.org/ns#"
   xmlns:rdf="http://www.w3.org/1999/02/22-rdf-syntax-ns#"
   xmlns:svg="http://www.w3.org/2000/svg"
   xmlns="http://www.w3.org/2000/svg"
   id="0c19722e-6825-11f1-89a4-0242ac110003"
   version="1.1"
   width="500"
   height="220"
   viewBox="0 335 500 220">
  <metadata
     id="metadata59">
    <rdf:RDF>
      <cc:Work
         rdf:about="">
        <dc:format>image/svg+xml</dc:format>
        <dc:type
           rdf:resource="http://purl.org/dc/dcmitype/StillImage" />
      </cc:Work>
    </rdf:RDF>
  </metadata>
  <defs
     id="defs57" />
  <g
     id="g2" />
  <g
     id="g48">
    <path
       id="path4"
       d="M 359.2698,341.9609 C 336.7338,341.9609 318.5178,360.9689 318.5178,383.0729 318.5178,405.3209 336.7338,423.7529 359.2698,423.7529 381.7338,423.7529 400.1658,405.3209 400.1658,383.0729 400.1658,360.9689 381.7338,341.9609 359.2698,341.9609 Z"
       style="fill-rule:evenodd;fill:#ffffff;" />
    <g
       id="g14">
      <path
         id="path6"
         d="M 178.9098,460.2569 C 153.9978,460.2569 133.8378,480.4169 133.8378,505.4009 133.8378,530.0969 153.9978,550.2569 178.9098,550.2569 203.6778,550.2569 224.1978,530.0969 224.1978,505.4009 224.1978,480.4169 203.6778,460.2569 178.9098,460.2569 M 178.9098,494.3849 C 184.8858,494.3849 190.1418,499.4969 190.1418,505.4009 190.1418,511.2329 184.8858,516.3449 178.9098,516.3449 173.0058,516.3449 167.6778,511.2329 167.6778,505.4009 167.6778,499.4969 173.0058,494.3849 178.9098,494.3849 Z"
         style="fill-rule:evenodd;fill:#ffffff;" />
      <path
         id="path8"
         d="M 41.3178,451.4729 L 61.6218,451.4729 C 75.9498,451.4729 90.4218,462.4169 90.5658,484.0169 90.7098,505.6169 76.0218,517.4969 61.2618,517.4969 L 41.3178,517.4969 41.3178,451.4729 M 234.9978,500.4329 L 273.3738,500.4329 C 285.9018,500.4329 286.6938,509.1449 286.6938,515.3369 L 286.6938,550.1129 323.7018,550.1129 323.7018,508.4969 C 323.7018,494.5289 319.8138,484.2329 308.5098,480.2009 320.4618,475.0889 328.0218,467.2409 327.8778,451.2569 327.5178,425.4089 297.8538,419.4329 277.2618,419.4329 L 0.2058,419.4329 0.2058,550.1129 58.6698,550.1129 C 101.2938,550.1129 129.5898,534.8489 130.8858,481.2809 131.1738,469.3289 127.4298,459.2489 123.6858,451.4729 L 278.2698,451.4729 C 285.6138,451.4729 287.9898,454.7849 287.9898,459.4649 287.9898,464.1449 285.6858,467.8889 278.6298,467.8889 L 220.6698,467.8889 C 229.3098,477.3929 234.3498,490.2809 234.9978,500.4329 Z"
         style="fill-rule:evenodd;fill:#ffffff;" />
      <path
         id="path10"
         d="M 387.2778,426.4169 L 387.2778,550.1129 420.2538,550.1129 420.2538,451.4729 451.7178,451.4729 C 463.7418,451.4729 466.6938,455.3609 466.6938,466.5929 L 466.6938,550.1129 500.1018,550.1129 500.1018,450.8249 C 500.1018,434.4089 488.2938,419.5769 466.6938,419.5769 L 395.9178,419.5769 C 393.3258,422.0969 390.3738,424.4009 387.2778,426.4169 Z"
         style="fill-rule:evenodd;fill:#ffffff;" />
      <path
         id="path12"
         d="M 342.5658,431.9609 L 342.5658,550.1129 375.9738,550.1129 375.9738,431.9609 C 370.7178,433.7609 365.1018,434.6969 359.2698,434.6969 353.4378,434.6969 347.8218,433.7609 342.5658,431.9609 Z"
         style="fill-rule:evenodd;fill:#ffffff;" />
    </g>
    <g
       id="g46">
      <path
         id="path16"
         d="M 0.2778,391.9289 C 0.4938,396.8969 4.0218,400.2089 8.9178,400.2089 13.5978,400.2089 17.3418,396.5369 17.3418,392.0009 17.3418,389.7689 16.3338,387.4649 14.6058,386.0249 13.3818,385.0169 12.7338,384.7289 9.4938,383.8649 5.3178,382.7129 4.0218,381.4889 4.0218,378.9689 4.0218,376.1609 6.1098,374.0009 8.7738,374.0009 11.5818,374.0009 13.6698,376.0169 13.8138,379.0409 L 16.7658,379.0409 C 16.7658,374.7929 13.3818,371.4809 9.0618,371.4809 4.5258,371.4809 1.2138,374.6489 1.2138,379.0409 1.2138,380.9129 1.9338,382.7129 3.1578,383.9369 4.3098,385.0889 5.5338,385.6649 8.3418,386.3129 12.6618,387.4649 14.6058,389.1929 14.6058,392.1449 14.6058,395.1689 12.0138,397.6889 8.9898,397.6889 5.7498,397.6889 3.6618,395.6009 3.2298,391.9289 L 0.2778,391.9289 Z"
         style="fill-rule:evenodd;fill:#ffffff;" />
      <path
         id="path18"
         d="M 23.1018,399.7049 L 25.7658,399.7049 25.7658,381.6329 30.7338,381.6329 30.7338,379.1849 25.7658,379.1849 25.7658,371.9849 23.1018,371.9849 23.1018,379.1849 18.8538,379.1849 18.8538,381.6329 23.1018,381.6329 23.1018,399.7049 Z"
         style="fill-rule:evenodd;fill:#ffffff;" />
      <path
         id="path20"
         d="M 52.6938,390.4169 C 52.6218,387.6089 52.3338,386.0249 51.3978,384.4409 49.5258,380.9129 45.9258,378.7529 42.0378,378.7529 36.0618,378.7529 31.3098,383.5049 31.3098,389.4809 31.3098,395.4569 36.1338,400.2089 42.1098,400.2089 46.5018,400.2089 50.6778,397.1849 52.1178,393.0089 L 49.2378,393.0089 C 48.1578,395.7449 45.0618,397.8329 42.1098,397.8329 37.9338,397.8329 34.2618,394.5209 34.0458,390.4169 L 52.6938,390.4169 M 34.1178,388.1129 C 34.8378,383.9369 38.1498,381.1289 42.1098,381.1289 45.8538,381.1289 48.9498,383.8649 49.9578,388.1129 L 34.1178,388.1129 Z"
         style="fill-rule:evenodd;fill:#ffffff;" />
      <path
         id="path22"
         d="M 57.6618,399.7049 L 60.3258,399.7049 60.3258,381.6329 65.5818,381.6329 65.5818,379.1849 60.3258,379.1849 60.3258,378.7529 C 60.3258,376.0169 62.0538,374.5769 65.1498,374.5769 65.2218,374.5769 65.4378,374.5769 65.5098,374.6489 L 65.5098,372.0569 65.0778,372.0569 C 62.4858,372.0569 60.3258,372.9209 59.1738,374.3609 58.1658,375.5129 57.8778,376.5929 57.6618,379.1849 L 54.4938,379.1849 54.4938,381.6329 57.6618,381.6329 57.6618,399.7049 Z"
         style="fill-rule:evenodd;fill:#ffffff;" />
      <path
         id="path24"
         d="M 88.1178,379.1849 L 85.5258,379.1849 85.5258,382.7849 C 83.5818,380.1209 80.8458,378.6809 77.4618,378.6809 71.2698,378.6809 66.4458,383.4329 66.4458,389.5529 66.4458,395.4569 71.4138,400.2089 77.5338,400.2089 80.8458,400.2089 83.5098,398.8409 85.5258,396.1049 L 85.5258,399.7049 88.1178,399.7049 88.1178,379.1849 M 77.3898,381.1289 C 81.9258,381.1289 85.5258,384.8009 85.5258,389.6249 85.5258,394.0169 81.8538,397.8329 77.5338,397.8329 72.7818,397.8329 69.0378,394.0889 69.0378,389.3369 69.0378,384.8729 72.9258,381.1289 77.3898,381.1289 Z"
         style="fill-rule:evenodd;fill:#ffffff;" />
      <path
         id="path26"
         d="M 93.5898,399.7049 L 96.3258,399.7049 96.3258,388.4729 C 96.3258,386.0969 96.6138,384.8729 97.3338,383.8649 98.4858,382.1369 100.5018,381.1289 102.5178,381.1289 106.4058,381.1289 108.9258,384.0089 108.9258,388.4729 L 108.9258,399.7049 111.5898,399.7049 111.5898,388.4729 C 111.5898,382.4969 107.9898,378.7529 102.5178,378.7529 100.0698,378.7529 98.1978,379.6169 96.1818,381.8489 L 96.1818,379.2569 93.5898,379.2569 93.5898,399.7049 Z"
         style="fill-rule:evenodd;fill:#ffffff;" />
      <path
         id="path28"
         d="M 127.5738,399.7049 L 135.7098,399.7049 C 139.2378,399.7049 142.1178,399.0569 144.2778,397.7609 148.4538,395.3129 151.0458,390.7049 151.0458,385.8089 151.0458,381.3449 148.7418,377.0249 144.9978,374.4329 142.6218,372.8489 139.3098,371.9849 135.5658,371.9849 L 127.5738,371.9849 127.5738,399.7049 M 130.3818,397.2569 L 130.3818,374.5049 134.4138,374.5049 C 138.3018,374.5049 140.7498,375.0089 142.8378,376.3049 146.3658,378.3929 148.3098,381.7769 148.3098,385.8089 148.3098,389.2649 146.8698,392.2169 144.4218,394.3769 141.9738,396.5369 139.5258,397.1849 134.4138,397.1849 L 130.3818,397.2569 Z"
         style="fill-rule:evenodd;fill:#ffffff;" />
      <path
         id="path30"
         d="M 164.6538,378.6809 C 158.8938,378.6809 153.9258,383.5769 153.9258,389.3369 153.9258,395.3849 158.6778,400.2089 164.6538,400.2089 170.4138,400.2089 175.3818,395.2409 175.3818,389.5529 175.3818,383.6489 170.4858,378.6809 164.6538,378.6809 M 164.6538,381.1289 C 169.1178,381.1289 172.7178,384.8009 172.7178,389.3369 172.7178,394.0889 169.1898,397.8329 164.6538,397.8329 160.1178,397.8329 156.5178,394.1609 156.5178,389.4089 156.5178,384.8729 160.2618,381.1289 164.6538,381.1289 Z"
         style="fill-rule:evenodd;fill:#ffffff;" />
      <path
         id="path32"
         d="M 179.4858,399.7049 L 182.2938,399.7049 182.2938,387.7529 C 182.2938,385.5209 182.7978,384.2249 184.3818,382.9289 185.4618,381.9929 186.3258,381.7049 188.1258,381.4889 L 188.1258,378.7529 C 184.8858,378.9689 183.3738,379.8329 182.0778,382.1369 L 182.0778,379.2569 179.4858,379.2569 179.4858,399.7049 Z"
         style="fill-rule:evenodd;fill:#ffffff;" />
      <path
         id="path34"
         d="M 199.8618,378.6809 C 194.0298,378.6809 189.0618,383.5769 189.0618,389.3369 189.0618,395.3849 193.8138,400.2089 199.8618,400.2089 205.5498,400.2089 210.5178,395.2409 210.5178,389.5529 210.5178,383.6489 205.6938,378.6809 199.8618,378.6809 M 199.8618,381.1289 C 204.1818,381.1289 207.8538,384.8009 207.8538,389.3369 207.8538,394.0889 204.3258,397.8329 199.8618,397.8329 195.2538,397.8329 191.7258,394.1609 191.7258,389.4089 191.7258,384.8729 195.3978,381.1289 199.8618,381.1289 Z"
         style="fill-rule:evenodd;fill:#ffffff;" />
      <path
         id="path36"
         d="M 214.6218,399.7049 L 217.2138,399.7049 217.2138,396.1769 C 219.0858,398.7689 222.0378,400.2089 225.4938,400.2089 231.4698,400.2089 236.2938,395.3849 236.2938,389.3369 236.2938,383.5049 231.3978,378.6809 225.4218,378.6809 221.9658,378.6809 219.2298,380.1209 217.4298,382.7129 L 217.4298,371.9849 214.6218,371.9849 214.6218,399.7049 M 225.5658,381.1289 C 230.1018,381.1289 233.7018,384.8009 233.7018,389.4089 233.7018,394.0889 230.0298,397.8329 225.5658,397.8329 220.8138,397.8329 217.2138,394.1609 217.2138,389.3369 217.2138,384.6569 220.8138,381.1289 225.5658,381.1289 Z"
         style="fill-rule:evenodd;fill:#ffffff;" />
      <path
         id="path38"
         d="M 240.4698,399.7049 L 243.0618,399.7049 243.0618,379.1849 240.4698,379.1849 240.4698,399.7049 M 240.4698,376.6649 L 243.0618,376.6649 243.0618,371.9849 240.4698,371.9849 240.4698,376.6649 Z"
         style="fill-rule:evenodd;fill:#ffffff;" />
      <path
         id="path40"
         d="M 268.9818,379.1849 L 266.3898,379.1849 266.3898,382.7849 C 264.4458,380.1209 261.6378,378.6809 258.3258,378.6809 252.0618,378.6809 247.2378,383.4329 247.2378,389.5529 247.2378,395.4569 252.2778,400.2089 258.3978,400.2089 261.6378,400.2089 264.3738,398.8409 266.3898,396.1049 L 266.3898,399.7049 268.9818,399.7049 268.9818,379.1849 M 258.1818,381.1289 C 262.7898,381.1289 266.3898,384.8009 266.3898,389.6249 266.3898,394.0169 262.6458,397.8329 258.3258,397.8329 253.6458,397.8329 249.9018,394.0889 249.9018,389.3369 249.9018,384.8729 253.7898,381.1289 258.1818,381.1289 Z"
         style="fill-rule:evenodd;fill:#ffffff;" />
      <path
         id="path42"
         d="M 305.1258,379.1849 L 302.5338,379.1849 302.5338,382.7849 C 300.5898,380.1209 297.7818,378.6809 294.5418,378.6809 288.2778,378.6809 283.5258,383.4329 283.5258,389.5529 283.5258,395.4569 288.4938,400.2089 294.6138,400.2089 297.7818,400.2089 300.5178,398.8409 302.5338,396.1049 L 302.5338,399.7049 305.1258,399.7049 305.1258,379.1849 M 294.4698,381.1289 C 298.9338,381.1289 302.5338,384.8009 302.5338,389.6249 302.5338,394.0169 298.7898,397.8329 294.5418,397.8329 289.8618,397.8329 286.1178,394.0889 286.1178,389.3369 286.1178,384.8729 290.0058,381.1289 294.4698,381.1289 Z"
         style="fill-rule:evenodd;fill:#ffffff;" />
      <path
         id="path44"
         d="M 272.9418,388.6169 L 275.6778,386.2409 275.6778,399.7049 278.2698,399.7049 278.2698,383.7929 282.3018,380.1209 282.3018,377.0969 278.2698,380.7689 278.2698,371.9849 275.6778,371.9849 275.6778,383.1449 272.9418,385.5929 272.9418,388.6169 Z"
         style="fill-rule:evenodd;fill:#ffffff;" />
    </g>
  </g>
  <g
     id="g50" />
  <g
     id="g52" />
</svg>
